<mxfile host="Electron" modified="2023-05-08T06:45:13.121Z" agent="Mozilla/5.0 (Windows NT 10.0; Win64; x64) AppleWebKit/537.36 (KHTML, like Gecko) draw.io/21.1.2 Chrome/106.0.5249.199 Electron/21.4.3 Safari/537.36" etag="X14TrJNyt2GmJPipJ8kO" version="21.1.2" type="device">
  <diagram name="Page-1" id="UzQQhbg_7JD1Qj3dcqCt">
    <mxGraphModel dx="1950" dy="1360" grid="1" gridSize="10" guides="1" tooltips="1" connect="1" arrows="1" fold="1" page="1" pageScale="1" pageWidth="1100" pageHeight="850" math="0" shadow="0">
      <root>
        <mxCell id="0" />
        <mxCell id="1" parent="0" />
        <mxCell id="vtm3co1te5MyLAOxCRpe-1" value="&lt;p style=&quot;line-height: 100%;&quot;&gt;&lt;font style=&quot;font-size: 25px;&quot;&gt;Sidetittel&lt;br&gt;&lt;/font&gt;&lt;/p&gt;&lt;p style=&quot;line-height: 100%; font-size: 19px;&quot;&gt;&lt;font style=&quot;font-size: 19px;&quot;&gt;Sidebeskrivelse&lt;/font&gt;&lt;/p&gt;" style="rounded=0;whiteSpace=wrap;html=1;align=left;" vertex="1" parent="1">
          <mxGeometry width="1100" height="120" as="geometry" />
        </mxCell>
        <mxCell id="vtm3co1te5MyLAOxCRpe-2" value="&lt;font style=&quot;font-size: 18px;&quot;&gt;Side for visning som&amp;nbsp; ein HTML liste&lt;/font&gt;" style="rounded=0;whiteSpace=wrap;html=1;" vertex="1" parent="1">
          <mxGeometry y="120" width="540" height="730" as="geometry" />
        </mxCell>
        <mxCell id="vtm3co1te5MyLAOxCRpe-3" value="Side for visning som eit chart.js stolpediagram" style="rounded=0;whiteSpace=wrap;html=1;fontSize=18;" vertex="1" parent="1">
          <mxGeometry x="540" y="120" width="560" height="730" as="geometry" />
        </mxCell>
        <mxCell id="vtm3co1te5MyLAOxCRpe-4" value="Inputfelt for val av fil" style="rounded=0;whiteSpace=wrap;html=1;" vertex="1" parent="1">
          <mxGeometry y="90" width="120" height="30" as="geometry" />
        </mxCell>
        <mxCell id="vtm3co1te5MyLAOxCRpe-5" value="Knapp som lastar inn fil og viser resten av sida" style="whiteSpace=wrap;html=1;fontSize=11;" vertex="1" parent="1">
          <mxGeometry x="130" y="90" width="120" height="30" as="geometry" />
        </mxCell>
      </root>
    </mxGraphModel>
  </diagram>
</mxfile>
